<svg width="680" height="1040" xmlns="http://www.w3.org/2000/svg" version="1.1">
 <g>
  <title>Layer 1</title>
  <g id="document" transform="matrix(1 0 0 1 1024 1024)">
   <path d="m-664.9803,-629.513l1.0424,60.4601c142.8119,0 259.5629,116.7514 259.5629,259.5629c0,142.812 -116.751,259.563 -259.563,259.563c-78.182,0 -151.151,-33.357 -202.23,-94.86c-10.424,-12.509 -30.23,-14.594 -42.739,-4.17c-12.509,10.425 -14.594,30.231 -4.17,42.74c61.503,74.012 151.151,116.751 247.0542,116.751c178.2538,0 321.0658,-144.897 321.0658,-320.024c0,-175.1266 -144.896,-320.023 -320.0233,-320.023zm165.7453,320.023c0,90.691 -74.0122,165.745 -165.7454,165.745c-48.9938,0 -95.9026,-21.89 -127.1756,-59.418c-10.424,-12.509 -30.23,-14.594 -42.739,-4.169c-12.509,10.424 -14.594,30.23 -4.17,42.739c42.739,52.121 106.327,82.351 174.0846,82.351c125.0907,0 226.2054,-101.115 226.2054,-226.205c0,-125.0909 -101.1146,-226.20593 -226.2053,-226.20595l1.0424,60.46055c90.6907,-1.0425 164.7029,74.0124 164.7029,164.7024zm-95.9031,0c0,37.528 -31.27264,68.8 -68.7998,68.8c-20.8485,0 -40.6545,-9.382 -53.1636,-25.018c-10.4242,-12.509 -30.2305,-14.594 -42.7395,-4.17c-12.509,10.425 -14.594,30.231 -4.17,42.74c26.061,30.23 61.5034,46.909 101.1155,46.909c71.9271,0 130.3028,-58.376 130.3028,-130.303c0,-71.927 -58.3757,-130.3029 -130.3028,-130.3029l-2.0849,58.3759c38.56967,4.169 69.8423,35.442 69.8423,72.969z" fill="#222326" id="svg_1"/>
   <path d="m-700.9761,-381.697l-1.0424,-60.4605c-142.8115,0 -259.5635,-116.7514 -259.5635,-259.5635c0,-142.812 116.752,-259.563 259.5635,-259.563c78.18171,0 151.1513,33.358 202.2295,94.861c10.425,12.509 30.231,14.594 42.74,4.169c12.509,-10.424 14.594,-30.23 4.169,-42.739c-61.502,-74.012 -151.1508,-116.751 -247.0536,-116.751c-178.2544,0 -321.0664,144.896 -321.0664,320.023c0,175.12723 144.897,320.024 320.0239,320.024zm-165.7449,-320.024c0,-90.69 74.012,-165.745 165.7449,-165.745c48.9939,0 95.9029,21.891 127.1756,59.418c10.4242,12.509 30.2302,14.594 42.7395,4.17c12.509,-10.424 14.594,-30.23 4.169,-42.739c-42.7388,-52.122 -106.32659,-82.352 -174.0841,-82.352c-125.0909,0 -226.2059,101.115 -226.2059,226.206c0,125.0905 101.115,226.2055 226.2059,226.2056l-1.0424,-60.4605c-90.6905,1.04236 -164.7025,-74.0121 -164.7025,-164.7031zm95.903,0c0,-37.527 31.272,-68.8 68.7995,-68.8c20.8485,0 40.6545,9.382 53.1635,25.019c10.42427,12.509 30.2303,14.593 42.7394,4.169c12.509,-10.424 14.5939,-30.23 4.1697,-42.739c-26.06059,-30.23 -61.503,-46.909 -101.115,-46.909c-71.9271,0 -130.3031,58.376 -130.3031,130.303c0,71.927 58.376,130.3025 130.3031,130.3025l2.0848,-58.3755c-38.5699,-4.17 -69.8419,-35.442 -69.8419,-72.97z" fill="#222326" id="svg_2"/>
  </g>
 </g>

</svg>